# xmcd CD database file
#
# Track frame offsets:
#	182
#	13857
#	30642
#	41997
#	48815
#	62372
#	75617
#	94840
#	105725
#
# Disc length: 1622 seconds
#
# Revision: 0
# Processed by: cddbd v1.5.2PL0 Copyright (c) Steve Scherf et al.
# Submitted via: CDex 1.51
#
DISCID=69065409
DTITLE=Sarah Jory - Deep In The Heart Of Texas
DYEAR=1988
DGENRE=Country
TTITLE0=Highway 40 Blues
TTITLE1=Careless Hands
TTITLE2=Almost Persuaded
TTITLE3=Waltz Across Texas
TTITLE4=Shirley
TTITLE5=Deep In The Heart Of Texas
TTITLE6=The Waltz You Saved For Me
TTITLE7=Cotton Eyed Joe - Sugar Foot Rag
TTITLE8=Blue Jade
EXTD=YEAR: 1988
EXTT0=
EXTT1=
EXTT2=
EXTT3=
EXTT4=
EXTT5=
EXTT6=
EXTT7=
EXTT8=
PLAYORDER=
